<svg width="100" height="100" viewBox="0 0 100 100" fill="none" xmlns="http://www.w3.org/2000/svg">
<g clip-path="url(#clip0)">
<path d="M20.0117 18.8476C19.2027 18.8476 18.5469 18.9408 18.5469 19.75V92.2207C18.5469 93.0299 19.2027 93.6856 20.0117 93.6856H79.9883C80.7973 93.6856 81.4531 93.0299 81.4531 92.2207V7.7793C81.4531 6.97012 80.7973 6.31445 79.9883 6.31445H20.0117C19.2027 6.31445 18.5469 6.97012 18.5469 7.7793V19.75C18.5469 20.5592 19.2027 21.2148 20.0117 21.2148C20.8207 21.2148 21.4766 20.5592 21.4766 19.75V9.24414H78.5234V90.7559H21.4766V19.75C21.4766 18.941 20.8207 18.8476 20.0117 18.8476Z" fill="#11161C"/>
<path d="M86.3027 79.6875C87.1117 79.6875 87.7676 79.0318 87.7676 78.2227V7.38281C87.7676 3.31191 84.4557 0 80.3848 0H19.6152C15.5443 0 12.2324 3.31191 12.2324 7.38281V92.6172C12.2324 96.6881 15.5443 100 19.6152 100H80.3848C84.4557 100 87.7676 96.6881 87.7676 92.6172V78.2227C87.7676 77.4135 87.1117 77.5391 86.3027 77.5391C85.4938 77.5391 84.8379 77.4135 84.8379 78.2227V92.6172C84.8379 95.0727 82.8402 97.0703 80.3848 97.0703H19.6152C17.1598 97.0703 15.1621 95.0727 15.1621 92.6172V7.38281C15.1621 4.92734 17.1598 2.92969 19.6152 2.92969H80.3848C82.8402 2.92969 84.8379 4.92734 84.8379 7.38281V78.2227C84.8379 79.0318 85.4938 79.6875 86.3027 79.6875Z" fill="#11161C"/>
<path d="M61.9579 23.4695C62.2438 23.7555 62.6188 23.8984 62.9936 23.8984C63.3684 23.8984 63.7434 23.7555 64.0293 23.4695L65.7836 21.7152L67.5379 23.4695C67.8239 23.7555 68.1989 23.8984 68.5737 23.8984C68.9485 23.8984 69.3235 23.7555 69.6094 23.4695C70.1815 22.8973 70.1815 21.9699 69.6094 21.3978L67.8551 19.6436L69.6094 17.8893C70.1815 17.317 70.1815 16.3896 69.6094 15.8176C69.0374 15.2457 68.1098 15.2457 67.5379 15.8176L65.7836 17.5719L64.0293 15.8176C63.4573 15.2457 62.5297 15.2457 61.9579 15.8176C61.3858 16.3898 61.3858 17.3172 61.9579 17.8893L63.7122 19.6436L61.9579 21.3978C61.3858 21.9699 61.3858 22.8973 61.9579 23.4695Z" fill="#11161C"/>
<path d="M63.8109 37.4867H36.1895C34.2938 37.4867 32.7516 39.0289 32.7516 40.9246V47.5549C30.4777 48.1955 28.8057 50.2867 28.8057 52.7625C28.8057 55.2383 30.4777 57.3297 32.7516 57.9701V64.6002C32.7516 66.4957 34.2938 68.0381 36.1895 68.0381H63.8111C64.0914 68.0381 64.3193 68.266 64.3193 68.5463V73.9927C62.0455 74.6334 60.3734 76.7246 60.3734 79.2004C60.3734 82.1838 62.8008 84.6111 65.7842 84.6111C68.7676 84.6111 71.1949 82.1838 71.1949 79.2004C71.1949 76.7246 69.5228 74.6332 67.249 73.9927V68.5463C67.249 66.6507 65.7068 65.1084 63.8111 65.1084H36.1895C35.9092 65.1084 35.6812 64.8804 35.6812 64.6002V57.9701C37.9551 57.3295 39.6271 55.2383 39.6271 52.7625C39.6271 50.2867 37.9551 48.1953 35.6812 47.5549V40.9246C35.6812 40.6443 35.9092 40.4164 36.1895 40.4164H63.8111C65.7068 40.4164 67.249 38.8742 67.249 36.9785V31.4392L68.4971 32.6873C68.783 32.9732 69.158 33.1162 69.5328 33.1162C69.9076 33.1162 70.2826 32.9732 70.5686 32.6873C71.1406 32.115 71.1406 31.1877 70.5686 30.6156L66.8199 26.867C66.3346 26.372 65.3635 26.2314 64.7484 26.867L60.9998 30.6156C60.4277 31.1879 60.4277 32.1152 60.9998 32.6873C61.5719 33.2591 62.4994 33.2591 63.0713 32.6873L64.3193 31.4392V36.9785C64.3191 37.2588 64.0912 37.4867 63.8109 37.4867ZM68.265 79.2002C68.265 80.5683 67.1519 81.6812 65.784 81.6812C64.416 81.6812 63.3029 80.5683 63.3029 79.2002C63.3029 77.832 64.416 76.7191 65.784 76.7191C67.1519 76.7191 68.265 77.832 68.265 79.2002ZM36.6975 52.7625C36.6975 54.1306 35.5844 55.2435 34.2164 55.2435C32.8484 55.2435 31.7354 54.1306 31.7354 52.7625C31.7354 51.3943 32.8484 50.2814 34.2164 50.2814C35.5844 50.2814 36.6975 51.3943 36.6975 52.7625Z" fill="#11161C"/>
<path d="M65.7838 47.3516C62.8004 47.3516 60.373 49.7789 60.373 52.7623C60.373 55.7457 62.8004 58.173 65.7838 58.173C68.7672 58.173 71.1945 55.7457 71.1945 52.7623C71.1945 49.7789 68.7672 47.3516 65.7838 47.3516ZM65.7838 55.2436C64.4158 55.2436 63.3027 54.1307 63.3027 52.7625C63.3027 51.3943 64.4158 50.2814 65.7838 50.2814C67.1518 50.2814 68.2648 51.3943 68.2648 52.7625C68.2648 54.1307 67.1518 55.2436 65.7838 55.2436Z" fill="#11161C"/>
<path d="M28.8057 79.1998C28.8057 82.1832 31.233 84.6105 34.2164 84.6105C37.1998 84.6105 39.6271 82.1832 39.6271 79.1998C39.6271 76.2164 37.1998 73.7891 34.2164 73.7891C31.233 73.7891 28.8057 76.2164 28.8057 79.1998ZM36.6975 79.1998C36.6975 80.568 35.5844 81.6809 34.2164 81.6809C32.8484 81.6809 31.7353 80.568 31.7353 79.1998C31.7353 77.8316 32.8484 76.7188 34.2164 76.7188C35.5844 76.7188 36.6975 77.8316 36.6975 79.1998Z" fill="#11161C"/>
<path d="M26.3242 18.3184H46.0541C46.8631 18.3184 47.5189 17.6627 47.5189 16.8535C47.5189 16.0443 46.8631 15.3887 46.0541 15.3887H26.3242C25.5152 15.3887 24.8594 16.0443 24.8594 16.8535C24.8594 17.6627 25.5152 18.3184 26.3242 18.3184Z" fill="#11161C"/>
<path d="M26.3242 24.6328H46.0541C46.8631 24.6328 47.5189 23.9771 47.5189 23.168C47.5189 22.3588 46.8631 21.7031 46.0541 21.7031H26.3242C25.5152 21.7031 24.8594 22.3588 24.8594 23.168C24.8594 23.9771 25.5152 24.6328 26.3242 24.6328Z" fill="#11161C"/>
<path d="M26.3242 30.9453H38.1332C38.9422 30.9453 39.5981 30.2896 39.5981 29.4805C39.5981 28.6713 38.9422 28.0156 38.1332 28.0156H26.3242C25.5152 28.0156 24.8594 28.6713 24.8594 29.4805C24.8594 30.2896 25.5152 30.9453 26.3242 30.9453Z" fill="#11161C"/>
</g>
<defs>
<clipPath id="clip0">
<rect width="100" height="100" fill="white"/>
</clipPath>
</defs>
</svg>
