<svg width="100" height="100" viewBox="0 0 100 100" fill="none" xmlns="http://www.w3.org/2000/svg">
<path d="M95 0H5C2.23984 0.00292969 0.00292969 2.23984 0 5V95C0.00292969 97.7602 2.23984 99.9971 5 100H95C97.7602 99.9971 99.9971 97.7602 100 95V5C99.9971 2.23984 97.7602 0.00292969 95 0ZM96.6666 95C96.666 95.9201 95.9201 96.666 95 96.6666H5C4.07988 96.666 3.33398 95.9201 3.3334 95V20H96.6668V95H96.6666ZM96.6666 16.6666H3.3334V5C3.33398 4.07988 4.07988 3.33398 5 3.3334H95C95.9201 3.33398 96.666 4.07988 96.6666 5V16.6666Z" fill="#11161C"/>
<path d="M11.6665 5C8.90518 5 6.6665 7.23867 6.6665 10C6.66943 12.7602 8.90635 14.9971 11.6665 15C14.4278 15 16.6665 12.7615 16.6665 10C16.6665 7.23848 14.428 5 11.6665 5ZM11.6665 11.6666C10.746 11.6666 9.9999 10.9205 9.9999 10C10.0005 9.07988 10.7464 8.33398 11.6665 8.3334C12.587 8.3334 13.3331 9.07949 13.3331 10C13.3331 10.9205 12.587 11.6666 11.6665 11.6666Z" fill="#11161C"/>
<path d="M23.3335 5C20.5722 5 18.3335 7.23867 18.3335 10C18.3364 12.7602 20.5733 14.9971 23.3335 15C26.0948 15 28.3335 12.7615 28.3335 10C28.3335 7.23848 26.0948 5 23.3335 5ZM23.3335 11.6666C22.413 11.6666 21.6669 10.9205 21.6669 10C21.6675 9.07988 22.4134 8.33398 23.3335 8.3334C24.254 8.3334 25.0001 9.07949 25.0001 10C25.0001 10.9205 24.254 11.6666 23.3335 11.6666Z" fill="#11161C"/>
<path d="M35 5C32.2387 5 30 7.23867 30 10C30.0029 12.7602 32.2398 14.9971 35 15C37.7613 15 40 12.7615 40 10C40 7.23848 37.7615 5 35 5ZM35 11.6666C34.0795 11.6666 33.3334 10.9205 33.3334 10C33.334 9.07988 34.0799 8.33398 35 8.3334C35.9205 8.3334 36.6666 9.07949 36.6666 10C36.6666 10.9205 35.9205 11.6666 35 11.6666Z" fill="#11161C"/>
<path d="M89.9998 5H86.6664C84.8264 5.00234 83.3355 6.49336 83.333 8.3334V11.6668C83.3354 13.5068 84.8264 14.9977 86.6664 15.0002H89.9998C91.8399 14.9978 93.3307 13.5068 93.3332 11.6668V8.3334C93.3307 6.49336 91.8399 5.00234 89.9998 5ZM86.6664 11.6666V8.3334H89.9998L90.0031 11.6668H86.6664V11.6666Z" fill="#11161C"/>
<path d="M13.3331 86.6656H33.3331V89.999C33.3354 91.8391 34.8265 93.3299 36.6665 93.3324H63.3331C65.1731 93.3301 66.664 91.8391 66.6665 89.999V86.6656H86.6665C88.5065 86.6633 89.9974 85.1723 89.9999 83.3322V33.3322C89.9976 31.4922 88.5065 30.0014 86.6665 29.9988H66.6665V26.6654C66.6642 24.8254 65.1731 23.3346 63.3331 23.332H36.6663C34.8263 23.3344 33.3354 24.8254 33.3329 26.6654V29.999H13.3329C11.4929 30.0014 10.0021 31.4924 9.99951 33.3324V83.3324C10.0021 85.1723 11.4931 86.6633 13.3331 86.6656ZM66.6663 79.6918C67.2001 79.8895 67.764 79.9934 68.3329 79.999H78.3329C81.0942 79.999 83.3329 77.7604 83.3329 74.999C83.3329 72.2377 81.0942 69.999 78.3329 69.999H68.3329C67.7638 70.0047 67.1999 70.1086 66.6663 70.3061V63.3322C67.5868 63.3322 68.3329 62.5861 68.3329 61.6656C68.3329 60.7451 67.5868 59.999 66.6663 59.999V54.0982C70.6698 57.702 76.8085 57.4869 80.5501 53.6119C84.2917 49.7369 84.2917 43.5945 80.5501 39.7195C76.8085 35.8445 70.6698 35.6295 66.6663 39.2332V33.3324H86.6663V83.3324H66.6663V79.6918ZM66.6663 74.999C66.6669 74.0789 67.4128 73.333 68.3329 73.3324H78.3329C79.2534 73.3324 79.9995 74.0785 79.9995 74.999C79.9995 75.9195 79.2534 76.6656 78.3329 76.6656H68.3329C67.4128 76.665 66.6671 75.9191 66.6663 74.999ZM66.6663 46.6656C66.6663 42.9838 69.6511 39.999 73.3329 39.999C77.0147 39.999 79.9995 42.9838 79.9995 46.6656C79.9995 50.3475 77.0147 53.3322 73.3329 53.3322C69.6526 53.3287 66.67 50.3461 66.6663 46.6656ZM36.6663 26.6656H63.3329L63.3333 31.6643L63.3329 31.6656L63.3333 31.667L63.3341 46.6455L63.3331 46.6658L63.3341 46.6861L63.3349 61.6568L63.3331 61.6658L63.3349 61.6748L63.3354 74.9746L63.3331 74.999L63.3356 75.0236L63.3362 84.9842L63.3333 84.999L63.3362 85.0139L63.3366 89.999H36.6667V26.6656H36.6663ZM13.3331 33.3324H33.3331V39.2332C29.3294 35.6295 23.1909 35.8445 19.4493 39.7195C15.7077 43.5945 15.7077 49.7369 19.4493 53.6119C23.1909 57.4869 29.3296 57.702 33.3331 54.0982V59.999H26.6665C25.746 59.999 24.9999 60.7451 24.9999 61.6656C24.9999 62.5861 25.746 63.3322 26.6665 63.3322H33.3331V70.3061C32.7993 70.1084 32.2354 70.0045 31.6665 69.999H21.6665C18.9052 69.999 16.6665 72.2377 16.6665 74.999C16.6665 77.7604 18.9052 79.999 21.6665 79.999H31.6665C32.2356 79.9934 32.7995 79.8895 33.3331 79.692V83.3324H13.3331V33.3324ZM33.3331 46.6656C33.3331 50.3475 30.3483 53.3322 26.6665 53.3322C22.9847 53.3322 19.9997 50.3477 19.9997 46.6656C19.9997 42.9836 22.9845 39.999 26.6663 39.999C30.3468 40.0027 33.3294 42.9854 33.3331 46.6656ZM33.3331 74.999C33.3325 75.9191 32.5866 76.665 31.6665 76.6656H21.6665C20.746 76.6656 19.9999 75.9195 19.9999 74.999C19.9999 74.0785 20.746 73.3324 21.6665 73.3324H31.6665C32.5866 73.333 33.3323 74.0789 33.3331 74.999Z" fill="#11161C"/>
<path d="M44.0529 42.8646L43.2049 48.0648C43.1021 48.6947 43.3681 49.3279 43.89 49.6955C44.4117 50.0631 45.0976 50.1004 45.656 49.7918L50.0002 47.391L54.3443 49.7918C54.9027 50.101 55.5886 50.0637 56.1103 49.6957C56.6316 49.3277 56.8976 48.6947 56.7955 48.0648L55.9474 42.8646L59.5265 39.1961C59.9627 38.749 60.1121 38.0957 59.914 37.5035C59.7158 36.9113 59.2031 36.4797 58.5859 36.3852L53.7064 35.6396L51.5092 30.9586C51.2346 30.3736 50.6467 30 50.0004 30C49.3541 30 48.7662 30.3736 48.4916 30.9586L46.2943 35.6396L41.4148 36.3852C40.7974 36.4797 40.2849 36.9113 40.0867 37.5035C39.8885 38.0957 40.0381 38.749 40.4742 39.1961L44.0529 42.8646ZM47.6775 38.8004C48.2267 38.7166 48.698 38.3643 48.934 37.8613L50.0002 35.5893L51.0662 37.8613C51.3021 38.3645 51.7734 38.7166 52.3226 38.8004L54.8748 39.191L52.9738 41.1393C52.6045 41.518 52.4365 42.0494 52.5213 42.5715L52.9525 45.2146L50.8056 44.0281C50.3045 43.7504 49.6955 43.7504 49.1943 44.0281L47.0474 45.2146L47.4787 42.5715C47.5635 42.0494 47.3955 41.518 47.0261 41.1393L45.1252 39.191L47.6775 38.8004Z" fill="#11161C"/>
<path d="M41.6666 56.6672H43.3332C44.2537 56.6672 44.9998 55.9211 44.9998 55.0006C44.9998 54.0801 44.2537 53.334 43.3332 53.334H41.6666C40.7461 53.334 40 54.0803 40 55.0006C40 55.9209 40.7463 56.6672 41.6666 56.6672Z" fill="#11161C"/>
<path d="M58.3335 53.334H50.0001C49.0796 53.334 48.3335 54.0803 48.3335 55.0006C48.3335 55.9209 49.0796 56.6672 50.0001 56.6672H58.3335C59.254 56.6672 60.0001 55.9211 60.0001 55.0006C60.0001 54.0801 59.254 53.334 58.3335 53.334Z" fill="#11161C"/>
<path d="M41.6666 63.3332H43.3332C44.2537 63.3332 44.9998 62.5871 44.9998 61.6666C44.9998 60.7461 44.2537 60 43.3332 60H41.6666C40.7461 60 40 60.7461 40 61.6666C40 62.5871 40.7463 63.3332 41.6666 63.3332Z" fill="#11161C"/>
<path d="M58.3335 60H50.0001C49.0796 60 48.3335 60.7461 48.3335 61.6666C48.3335 62.5871 49.0796 63.3332 50.0001 63.3332H58.3335C59.254 63.3332 60.0001 62.5871 60.0001 61.6666C60.0001 60.7461 59.254 60 58.3335 60Z" fill="#11161C"/>
<path d="M41.6666 69.9992H43.3332C44.2537 69.9992 44.9998 69.2531 44.9998 68.3326C44.9998 67.4121 44.2537 66.666 43.3332 66.666H41.6666C40.7461 66.666 40 67.4121 40 68.3326C40 69.2531 40.7463 69.9992 41.6666 69.9992Z" fill="#11161C"/>
<path d="M58.3335 66.666H50.0001C49.0796 66.666 48.3335 67.4121 48.3335 68.3326C48.3335 69.2531 49.0796 69.9992 50.0001 69.9992H58.3335C59.254 69.9992 60.0001 69.2531 60.0001 68.3326C60.0001 67.4121 59.254 66.666 58.3335 66.666Z" fill="#11161C"/>
<path d="M55 76.666H45C42.2387 76.666 40 78.9047 40 81.666C40 84.4273 42.2387 86.666 45 86.666H55C57.7613 86.666 60 84.4275 60 81.666C60 78.9045 57.7613 76.666 55 76.666ZM55 83.3328H45C44.0795 83.3328 43.3334 82.5867 43.3334 81.6662C43.3334 80.7457 44.0795 79.9996 45 79.9996H55C55.9205 79.9996 56.6666 80.7457 56.6666 81.6662C56.6666 82.5867 55.9205 83.3328 55 83.3328Z" fill="#11161C"/>
<path d="M18.3336 63.3332H20.0002C20.9207 63.3332 21.6668 62.5871 21.6668 61.6666C21.6668 60.7461 20.9207 60 20.0002 60H18.3336C17.4131 60 16.667 60.7461 16.667 61.6666C16.667 62.5871 17.4131 63.3332 18.3336 63.3332Z" fill="#11161C"/>
<path d="M81.6665 60H73.3331C72.4126 60 71.6665 60.7461 71.6665 61.6666C71.6665 62.5871 72.4126 63.3332 73.3331 63.3332H81.6665C82.587 63.3332 83.3331 62.5871 83.3331 61.6666C83.3331 60.7461 82.587 60 81.6665 60Z" fill="#11161C"/>
</svg>
